<svg xmlns="http://www.w3.org/2000/svg" width="512" height="512" viewBox="0 0 512 512" fill="none">
  <defs>
    <linearGradient id="g" x1="0" y1="0" x2="512" y2="512" gradientUnits="userSpaceOnUse">
      <stop stop-color="#4f46e5"/>
      <stop offset="1" stop-color="#9333ea"/>
    </linearGradient>
  </defs>
  <rect width="512" height="512" rx="112" fill="url(#g)"/>
  <g fill="#ffffff">
    <!-- tower -->
    <rect x="176" y="128" width="160" height="272" rx="14" opacity="0.98"/>
    <!-- side wing -->
    <rect x="320" y="216" width="72" height="184" rx="12" opacity="0.72"/>
    <rect x="120" y="256" width="60" height="144" rx="12" opacity="0.72"/>
    <!-- windows on tower -->
    <g fill="#4f46e5">
      <rect x="204" y="164" width="28" height="28" rx="6"/>
      <rect x="248" y="164" width="28" height="28" rx="6"/>
      <rect x="292" y="164" width="28" height="28" rx="6"/>
      <rect x="204" y="212" width="28" height="28" rx="6"/>
      <rect x="248" y="212" width="28" height="28" rx="6"/>
      <rect x="292" y="212" width="28" height="28" rx="6"/>
      <rect x="204" y="260" width="28" height="28" rx="6"/>
      <rect x="248" y="260" width="28" height="28" rx="6"/>
      <rect x="292" y="260" width="28" height="28" rx="6"/>
    </g>
    <!-- door -->
    <rect x="236" y="330" width="40" height="70" rx="10" fill="#4f46e5"/>
  </g>
</svg>
