<svg xmlns="http://www.w3.org/2000/svg" width="512" height="512" viewBox="0 0 512 512" fill="none" role="img" aria-label="ועד">
  <defs>
    <linearGradient id="tile" x1="0" y1="0" x2="0" y2="512" gradientUnits="userSpaceOnUse">
      <stop stop-color="#eaf3ff"/>
      <stop offset="1" stop-color="#ffffff"/>
    </linearGradient>
    <linearGradient id="glass" x1="0" y1="112" x2="0" y2="432" gradientUnits="userSpaceOnUse">
      <stop stop-color="#f2f8ff"/>
      <stop offset="0.32" stop-color="#bcdcff"/>
      <stop offset="0.64" stop-color="#6fa8e6"/>
      <stop offset="1" stop-color="#3f83cf"/>
    </linearGradient>
    <linearGradient id="side" x1="300" y1="112" x2="334" y2="432" gradientUnits="userSpaceOnUse">
      <stop stop-color="#2b5ea3"/>
      <stop offset="1" stop-color="#123163"/>
    </linearGradient>
    <radialGradient id="gnd" cx="262" cy="440" r="150" gradientUnits="userSpaceOnUse">
      <stop stop-color="#294a7a" stop-opacity="0.28"/>
      <stop offset="1" stop-color="#294a7a" stop-opacity="0"/>
    </radialGradient>
    <clipPath id="fclip">
      <rect x="182" y="112" width="118" height="320"/>
    </clipPath>
  </defs>

  <rect width="512" height="512" rx="112" fill="url(#tile)"/>
  <rect data-edge="1" x="3" y="3" width="506" height="506" rx="109" fill="none" stroke="#dbe6f7" stroke-width="3"/>

  <rect x="150" y="196" width="30" height="236" fill="#9ec2ee" opacity="0.35"/>
  <rect x="330" y="168" width="26" height="264" fill="#b7d3f4" opacity="0.5"/>

  <ellipse cx="262" cy="440" rx="150" ry="15" fill="url(#gnd)"/>

  <path d="M300 112 L334 134 L334 412 L300 432 Z" fill="url(#side)"/>
  <path d="M300 112 L334 134 L334 146 L300 124 Z" fill="#9db6d8" opacity="0.85"/>

  <rect x="182" y="112" width="118" height="320" fill="url(#glass)"/>
  <rect x="180" y="105" width="122" height="10" rx="3" fill="#cdddf3"/>

  <g clip-path="url(#fclip)">
    <line x1="205.6" y1="115" x2="205.6" y2="432" stroke="#ffffff" stroke-opacity="0.28" stroke-width="1.4"/>
    <line x1="229.2" y1="115" x2="229.2" y2="432" stroke="#ffffff" stroke-opacity="0.28" stroke-width="1.4"/>
    <line x1="252.8" y1="115" x2="252.8" y2="432" stroke="#ffffff" stroke-opacity="0.28" stroke-width="1.4"/>
    <line x1="276.4" y1="115" x2="276.4" y2="432" stroke="#ffffff" stroke-opacity="0.28" stroke-width="1.4"/>
    <line x1="182" y1="132" x2="300" y2="132" stroke="#ffffff" stroke-opacity="0.16" stroke-width="1.2"/>
    <line x1="182" y1="151" x2="300" y2="151" stroke="#ffffff" stroke-opacity="0.16" stroke-width="1.2"/>
    <line x1="182" y1="170" x2="300" y2="170" stroke="#ffffff" stroke-opacity="0.16" stroke-width="1.2"/>
    <line x1="182" y1="189" x2="300" y2="189" stroke="#ffffff" stroke-opacity="0.16" stroke-width="1.2"/>
    <line x1="182" y1="208" x2="300" y2="208" stroke="#ffffff" stroke-opacity="0.16" stroke-width="1.2"/>
    <line x1="182" y1="227" x2="300" y2="227" stroke="#ffffff" stroke-opacity="0.16" stroke-width="1.2"/>
    <line x1="182" y1="246" x2="300" y2="246" stroke="#ffffff" stroke-opacity="0.16" stroke-width="1.2"/>
    <line x1="182" y1="265" x2="300" y2="265" stroke="#ffffff" stroke-opacity="0.16" stroke-width="1.2"/>
    <line x1="182" y1="284" x2="300" y2="284" stroke="#ffffff" stroke-opacity="0.16" stroke-width="1.2"/>
    <line x1="182" y1="303" x2="300" y2="303" stroke="#ffffff" stroke-opacity="0.16" stroke-width="1.2"/>
    <line x1="182" y1="322" x2="300" y2="322" stroke="#ffffff" stroke-opacity="0.16" stroke-width="1.2"/>
    <line x1="182" y1="341" x2="300" y2="341" stroke="#ffffff" stroke-opacity="0.16" stroke-width="1.2"/>
    <line x1="182" y1="360" x2="300" y2="360" stroke="#ffffff" stroke-opacity="0.16" stroke-width="1.2"/>
    <line x1="182" y1="379" x2="300" y2="379" stroke="#ffffff" stroke-opacity="0.16" stroke-width="1.2"/>
    <line x1="182" y1="398" x2="300" y2="398" stroke="#ffffff" stroke-opacity="0.16" stroke-width="1.2"/>
    <path d="M182 250 L300 140 L300 200 L182 310 Z" fill="#ffffff" opacity="0.14"/>
  </g>

  <line x1="241" y1="106" x2="241" y2="65" stroke="#b9cbe6" stroke-width="3" stroke-linecap="round"/>
  <circle cx="241" cy="62" r="4.5" fill="#2563eb"/>
</svg>
